<svg width="24" height="24" viewBox="0 0 24 24" fill="none" xmlns="http://www.w3.org/2000/svg">
<path d="M8.99913 12.0009L10.0705 13.0723C10.5365 13.5383 10.7695 13.7713 11.0591 13.7713C11.3486 13.7713 11.5816 13.5383 12.0476 13.0723L15.06 10.06M8.15771 4.9994L7.22654 4.9883C5.98432 4.97351 4.97351 5.98432 4.9883 7.22654L4.9994 8.15771C5.0066 8.76262 4.76575 9.34409 4.33292 9.76673L3.66663 10.4173C2.77779 11.2852 2.77779 12.7148 3.66663 13.5827L4.33292 14.2333C4.76575 14.6559 5.0066 15.2374 4.9994 15.8423L4.9883 16.7735C4.97351 18.0157 5.98432 19.0265 7.22654 19.0117L8.15771 19.0006C8.76262 18.9934 9.34409 19.2342 9.76673 19.6671L10.4173 20.3334C11.2852 21.2222 12.7148 21.2222 13.5827 20.3334L14.2333 19.6671C14.6559 19.2342 15.2374 18.9934 15.8423 19.0006L16.7735 19.0117C18.0157 19.0265 19.0265 18.0157 19.0117 16.7735L19.0006 15.8423C18.9934 15.2374 19.2342 14.6559 19.6671 14.2333L20.3334 13.5827C21.2222 12.7148 21.2222 11.2852 20.3334 10.4173L19.6671 9.76673C19.2342 9.34409 18.9934 8.76262 19.0006 8.15771L19.0117 7.22654C19.0265 5.98432 18.0157 4.97351 16.7735 4.9883L15.8423 4.9994C15.2374 5.0066 14.6559 4.76575 14.2333 4.33292L13.5827 3.66663C12.7148 2.77779 11.2852 2.77779 10.4173 3.66663L9.76673 4.33292C9.34409 4.76575 8.76262 5.0066 8.15771 4.9994Z" stroke="black" stroke-width="null" stroke-linecap="round" class="my-path"/>
</svg>